<svg width="24" height="24" viewBox="0 0 24 24" fill="none" xmlns="http://www.w3.org/2000/svg">
<path d="M12 7V9M11.998 2C8.98997 2 7.03997 4.019 4.73397 4.755C3.79597 5.055 3.32697 5.204 3.13697 5.415C2.94697 5.625 2.89197 5.934 2.78097 6.55C1.59097 13.146 4.19097 19.244 10.391 21.618C11.056 21.873 11.389 22 12.001 22C12.613 22 12.947 21.872 13.613 21.617C19.812 19.244 22.409 13.146 21.219 6.55C21.108 5.934 21.052 5.625 20.862 5.414C20.672 5.203 20.204 5.054 19.266 4.755C16.959 4.019 15.006 2 11.998 2Z" stroke="black" stroke-width="1.5" stroke-linecap="round" stroke-linejoin="round"/>
</svg>
